<svg version="1.1" id="Layer_1" xmlns="http://www.w3.org/2000/svg" xmlns:xlink="http://www.w3.org/1999/xlink" x="0px" y="0px"
	 width="100%" viewBox="0 0 338 401" enable-background="new 0 0 338 401" xml:space="preserve">
<path fill="#2E8CA3" opacity="1.000000" stroke="none" 
	d="
M173.000000,1.000000 
	C175.042313,1.000000 177.084641,1.000000 179.754272,1.362417 
	C182.509628,1.960247 184.689011,1.979180 186.756454,2.469827 
	C194.327499,4.266606 201.173630,7.063381 207.371521,12.370207 
	C212.324829,16.611374 217.125656,20.399292 219.197983,27.017551 
	C220.233704,28.815838 221.227112,30.384258 222.156830,31.949219 
	C222.093155,31.945761 222.104675,31.818727 222.085922,32.253387 
	C222.701691,37.904194 223.783569,43.116371 223.829956,48.337746 
	C223.867432,52.555023 222.656448,56.783398 221.934219,61.357777 
	C219.295364,66.027740 216.876053,70.448738 214.108948,74.640144 
	C210.613556,79.934700 211.808746,84.509163 219.349152,92.153496 
	C224.435654,92.276428 229.243683,92.514717 233.953079,91.942009 
	C242.322922,90.924133 250.632996,89.414841 259.404144,88.046921 
	C263.738190,87.623215 267.636200,87.263702 271.749573,86.729271 
	C279.976166,85.697266 287.987335,84.840179 296.415344,83.957680 
	C302.937408,83.922691 309.042633,83.913116 315.100128,83.922699 
	C315.052399,83.941864 315.017120,83.845238 315.195190,84.059525 
	C315.666840,84.500893 315.960358,84.727974 316.148926,84.955811 
	C316.043976,84.956573 316.045166,84.746635 316.198883,84.974533 
	C316.615845,85.453888 316.879120,85.705345 317.470459,86.046234 
	C323.267883,90.867653 325.049438,97.459297 326.626282,104.403008 
	C326.277527,106.403992 326.010803,108.052155 326.010284,109.700401 
	C325.991608,171.334549 325.990570,232.968689 326.034210,294.602814 
	C326.035461,296.383026 326.543793,298.162933 326.857178,300.314178 
	C326.341003,306.906769 320.406006,309.024261 317.298706,313.295746 
	C314.447876,317.214691 310.821564,320.096008 305.908417,319.918823 
	C298.281250,319.643738 290.676147,318.758301 282.750122,317.878296 
	C267.976440,315.734924 253.525803,313.750244 239.047256,311.995667 
	C232.038849,311.146362 224.978104,310.728943 217.563568,310.060791 
	C216.677887,309.985504 216.169662,309.965393 215.529007,309.999695 
	C215.396561,310.054108 215.120636,309.977417 214.798798,310.087830 
	C213.806061,310.157257 213.135162,310.116272 212.081818,310.105133 
	C210.819031,310.532440 209.938721,310.929932 209.166306,311.208649 
	C209.274216,311.089874 209.508713,311.308960 209.175354,311.373474 
	C208.226013,312.281616 207.610031,313.125244 207.002502,313.986084 
	C207.010956,314.003296 206.972656,314.001099 206.815063,314.187256 
	C206.453018,314.628113 206.224701,314.859314 205.992889,315.009827 
	C206.013214,314.952667 206.128021,314.991821 205.911819,315.209351 
	C205.476013,315.994171 205.256409,316.561493 205.033676,317.080444 
	C205.030563,317.032135 205.127319,317.027832 204.809143,317.201111 
	C202.202240,322.034180 205.052689,330.431213 210.079773,333.941528 
	C210.044495,333.940979 210.066605,333.873962 210.072235,334.232971 
	C210.960571,336.051605 211.843277,337.511230 212.905914,339.329346 
	C214.060272,345.137207 215.847900,350.591522 215.814621,356.034698 
	C215.767136,363.803131 213.348923,371.227875 208.643280,377.645447 
	C201.409363,387.511108 192.388977,394.607727 179.329010,395.977966 
	C174.134598,396.344147 169.333008,397.053528 164.562851,396.883179 
	C159.296997,396.695099 154.059937,395.700317 148.499954,394.893494 
	C143.789398,392.087128 139.389221,389.444214 134.905945,386.483765 
	C133.834305,385.458618 132.845718,384.751038 131.595139,383.939270 
	C130.881714,383.249359 130.430267,382.663544 129.894684,381.777466 
	C129.367493,381.063934 128.924469,380.650665 128.554398,380.270264 
	C128.627350,380.303162 128.544403,380.440033 128.573151,380.100525 
	C128.007477,379.209534 127.413048,378.658020 126.855576,378.108063 
	C126.892532,378.109619 126.877663,378.182098 126.886993,377.824829 
	C126.209518,376.675629 125.522720,375.883759 124.872498,375.094421 
	C124.909065,375.096924 124.890656,375.167877 124.901062,374.777679 
	C121.948853,366.341400 118.846992,358.310913 120.038643,349.467041 
	C120.563026,345.575317 121.265175,341.707520 121.905334,337.884155 
	C121.924049,337.939453 121.812187,337.972931 122.046814,337.769714 
	C122.496094,336.996002 122.710747,336.425507 122.933563,335.890015 
	C122.941719,335.925018 122.870087,335.930603 123.208885,335.867676 
	C124.999634,333.482178 126.451576,331.159576 127.923073,328.895294 
	C127.942627,328.953583 127.825081,328.989716 128.040482,328.806335 
	C128.491440,328.328918 128.726990,328.034912 128.932098,327.820496 
	C128.901672,327.900055 128.744675,327.833862 129.092300,327.781494 
	C129.929382,326.769043 130.418823,325.808960 130.926086,324.900879 
	C130.943909,324.952911 130.838913,324.985596 131.058411,324.782318 
	C131.544052,323.837585 131.810181,323.096100 132.040955,321.918854 
	C131.982056,319.741241 131.958527,317.999451 131.768570,316.032349 
	C131.351669,315.529510 131.101196,315.251984 130.932678,314.968933 
	C131.014633,314.963379 131.027313,315.127167 130.840759,314.943359 
	C130.405746,314.514069 130.157288,314.268555 129.655289,313.923401 
	C128.909607,313.305634 128.417465,312.787537 127.767487,311.930725 
	C124.532227,310.862183 121.397232,309.327698 118.387398,309.542999 
	C105.905701,310.435760 93.461823,311.857117 80.601440,313.145538 
	C72.825218,314.133118 65.428917,314.912415 58.086918,316.044037 
	C54.017952,316.671143 50.039776,317.887329 45.613060,318.914886 
	C31.669195,317.633240 25.927378,311.298340 27.506582,298.790771 
	C28.527132,291.072235 29.213678,283.531433 29.921961,275.524384 
	C30.216528,269.609436 30.602886,264.163544 30.737106,258.711395 
	C30.972132,249.164368 31.052408,239.613525 31.083138,229.673080 
	C30.588533,225.037949 32.997475,222.241592 36.555370,221.204285 
	C38.449852,220.651917 41.575768,221.576004 43.082684,222.977127 
	C46.983597,226.604202 49.998959,231.191681 53.939438,234.765533 
	C56.822281,237.380157 60.611568,238.995377 64.126472,241.381943 
	C69.073013,243.131714 73.846291,245.449661 78.721077,245.687592 
	C82.409592,245.867599 86.227692,243.392487 90.321793,241.999084 
	C101.007256,236.140030 108.865456,228.117508 113.592163,216.841614 
	C118.149971,210.442398 119.496017,203.482605 118.443779,196.094833 
	C118.192627,194.331528 116.946465,192.709961 116.053024,190.663010 
	C115.095177,188.145233 114.323090,185.951492 113.376724,183.835693 
	C104.955132,165.007431 85.206375,152.774475 64.304405,158.129227 
	C57.784946,159.799408 52.146011,163.508652 48.072475,168.983002 
	C44.017872,174.431946 39.734035,174.714874 34.923176,168.947906 
	C34.623280,165.872742 34.061184,163.244598 34.050785,160.614273 
	C33.969975,140.174622 33.986008,119.734528 33.998333,99.294586 
	C34.000191,96.217445 34.138290,93.140381 34.255554,89.719986 
	C37.101894,81.426506 43.708038,79.713173 51.197094,79.500725 
	C55.961342,80.533836 60.559647,81.242188 65.369812,81.945282 
	C65.581680,81.940025 65.999290,82.012543 66.296043,82.245758 
	C68.098366,82.642410 69.603928,82.805847 71.523361,82.934387 
	C86.970612,85.321953 102.003990,87.744400 117.204384,90.319862 
	C117.620331,90.644417 117.876122,90.805031 118.365509,90.967667 
	C118.592239,90.980629 119.027603,91.110085 119.341995,91.325745 
	C125.147865,92.423355 130.731705,95.228569 135.952698,90.832222 
	C135.939255,90.906296 135.792053,90.874657 136.108398,90.829849 
	C136.943466,90.441498 137.462219,90.097961 137.996155,89.858139 
	C138.011353,89.961868 137.803818,89.991631 138.014252,89.826180 
	C138.479599,89.411247 138.734512,89.161766 138.983673,88.946175 
	C138.977936,88.980072 138.912277,88.959671 139.219574,88.874100 
	C139.993073,88.141495 140.459290,87.494461 140.930130,86.884537 
	C140.934753,86.921654 140.860107,86.926567 141.200562,86.843124 
	C143.595840,84.685814 145.395935,82.587524 142.085876,79.652878 
	C141.161835,77.766678 140.415421,76.190048 139.502441,74.716621 
	C137.706802,71.818695 135.818604,68.978104 133.902527,65.811752 
	C133.488464,65.016045 133.140610,64.522377 132.852463,64.047241 
	C132.912170,64.065765 132.870636,64.183693 132.898895,63.767822 
	C131.935196,55.184563 130.943222,47.017170 129.966095,38.446117 
	C130.043274,36.888458 129.863358,35.656857 130.204437,34.592155 
	C134.947372,19.787178 150.316742,5.248880 166.135361,3.151862 
	C168.477509,2.841372 170.714401,1.737052 173.000000,1.000000 
z"/>
<path fill="#FEFEFE" opacity="1.000000" stroke="none" 
	d="
M127.925323,312.269440 
	C128.417465,312.787537 128.909607,313.305634 129.759796,314.181702 
	C130.420990,314.735474 130.724152,314.931335 131.027313,315.127167 
	C131.027313,315.127167 131.014633,314.963379 131.015137,315.256165 
	C131.322083,315.785187 131.628540,316.021423 131.934998,316.257629 
	C131.958527,317.999451 131.982056,319.741241 131.839050,322.136230 
	C131.394653,323.521454 131.116791,324.253540 130.838913,324.985596 
	C130.838913,324.985596 130.943909,324.952911 130.672958,325.084045 
	C129.849564,326.088104 129.297119,326.960968 128.744675,327.833862 
	C128.744675,327.833862 128.901672,327.900055 128.653595,327.934326 
	C128.212036,328.308960 128.018555,328.649353 127.825081,328.989716 
	C127.825081,328.989716 127.942627,328.953583 127.630455,329.063049 
	C125.835548,331.425201 124.352821,333.677887 122.870087,335.930603 
	C122.870087,335.930603 122.941719,335.925018 122.686707,336.080872 
	C122.225189,336.815430 122.018684,337.394196 121.812180,337.972931 
	C121.812187,337.972931 121.924049,337.939453 121.633247,338.131287 
	C115.838867,351.248596 117.366913,363.496918 124.890656,375.167877 
	C124.890656,375.167877 124.909065,375.096924 124.949814,375.401611 
	C125.619591,376.531555 126.248627,377.356842 126.877663,378.182098 
	C126.877663,378.182098 126.892532,378.109619 126.945045,378.390076 
	C127.513168,379.260376 128.028778,379.850220 128.544403,380.440033 
	C128.544403,380.440033 128.627350,380.303162 128.662460,380.562256 
	C129.124664,381.240173 129.551758,381.658966 129.978836,382.077759 
	C130.430267,382.663544 130.881714,383.249359 131.734802,384.212097 
	C133.087296,385.326508 134.038162,386.063934 134.989029,386.801331 
	C139.389221,389.444214 143.789398,392.087128 148.693817,395.225952 
	C153.701385,396.727112 158.160477,398.152802 162.719086,398.632202 
	C168.532196,399.243530 174.537048,399.765839 179.735687,395.933258 
	C192.388977,394.607727 201.409363,387.511108 208.643280,377.645447 
	C213.348923,371.227875 215.767136,363.803131 215.814621,356.034698 
	C215.847900,350.591522 214.060272,345.137207 212.845428,339.011566 
	C211.758865,336.848175 210.912735,335.361053 210.066605,333.873962 
	C210.066605,333.873962 210.044495,333.940979 210.006088,333.591431 
	C207.122101,328.205017 203.942825,323.267792 205.127319,317.027832 
	C205.127319,317.027832 205.030563,317.032135 205.262436,316.871277 
	C205.705536,316.137543 205.916779,315.564667 206.128021,314.991821 
	C206.128021,314.991821 206.013214,314.952667 206.233398,314.911804 
	C206.626617,314.581024 206.799637,314.291046 206.972656,314.001099 
	C206.972656,314.001099 207.010956,314.003296 207.248840,313.805786 
	C208.160721,312.841827 208.834717,312.075378 209.508713,311.308960 
	C209.508713,311.308960 209.274216,311.089874 209.556183,311.228790 
	C210.713516,310.936920 211.588898,310.506134 212.464279,310.075317 
	C213.135162,310.116272 213.806061,310.157257 214.834137,310.195984 
	C215.191330,310.193756 215.511139,310.215759 215.511139,310.215759 
	C215.511139,310.215759 215.661453,309.945312 215.661453,309.945312 
	C216.169662,309.965393 216.677887,309.985504 217.768250,310.402222 
	C236.609299,313.200409 254.861130,315.658234 273.133636,317.951294 
	C276.399078,318.361084 279.750153,318.088898 283.061676,318.131592 
	C290.676147,318.758301 298.281250,319.643738 305.908417,319.918823 
	C310.821564,320.096008 314.447876,317.214691 317.298706,313.295746 
	C320.406006,309.024261 326.341003,306.906769 326.944946,299.856445 
	C327.016998,251.863403 327.066437,204.699310 327.056274,157.535217 
	C327.052429,139.706879 326.911072,121.878555 326.832397,104.050224 
	C325.049438,97.459297 323.267883,90.867653 317.386230,85.766479 
	C316.664337,85.180405 316.354767,84.963516 316.045166,84.746628 
	C316.045166,84.746635 316.043976,84.956573 316.043091,84.675217 
	C315.700500,84.210991 315.358795,84.028114 315.017120,83.845245 
	C315.017120,83.845238 315.052399,83.941864 314.878326,83.626335 
	C308.530884,79.963539 302.251282,81.022041 295.597290,82.906494 
	C289.537964,83.547501 283.815338,84.005478 278.139954,84.800911 
	C275.884094,85.117088 273.732971,86.180801 271.534180,86.904190 
	C267.636200,87.263702 263.738190,87.623215 259.049927,87.983025 
	C255.472153,88.127243 252.670715,88.141060 249.899704,88.438316 
	C239.603149,89.542877 229.316574,90.740692 219.026260,91.903488 
	C211.808746,84.509163 210.613556,79.934700 214.108948,74.640144 
	C216.876053,70.448738 219.295364,66.027740 222.231354,61.132240 
	C226.087387,50.914551 226.542084,41.325027 222.104675,31.818727 
	C222.104675,31.818727 222.093155,31.945761 222.109894,31.608883 
	C221.136322,29.777231 220.146011,28.282457 219.155685,26.787683 
	C217.125656,20.399292 212.324829,16.611374 207.371521,12.370207 
	C201.173630,7.063381 194.327499,4.266606 186.756454,2.469827 
	C184.689011,1.979180 182.509628,1.960247 180.190796,1.362417 
	C232.984222,1.000000 285.968445,1.000000 338.976318,1.000000 
	C338.976318,134.611099 338.976318,268.222198 338.976318,401.916656 
	C226.422485,401.916656 113.844894,401.916656 1.133652,401.916656 
	C1.133652,268.333405 1.133652,134.666733 1.133652,1.000000 
	C58.096352,1.000000 115.079514,1.000000 172.531342,1.000000 
	C170.714401,1.737052 168.477509,2.841372 166.135361,3.151862 
	C150.316742,5.248880 134.947372,19.787178 130.204437,34.592155 
	C129.863358,35.656857 130.043274,36.888458 129.627350,38.654984 
	C127.316727,48.028503 128.410614,56.349064 132.870636,64.183693 
	C132.870636,64.183693 132.912170,64.065765 132.897247,64.364777 
	C133.244461,65.147125 133.606598,65.630455 133.968719,66.113785 
	C135.818604,68.978104 137.706802,71.818695 139.502441,74.716621 
	C140.415421,76.190048 141.161835,77.766678 142.032196,80.051102 
	C141.673920,82.845894 141.267014,84.886230 140.860107,86.926567 
	C140.860107,86.926567 140.934753,86.921654 140.676361,87.037415 
	C139.916061,87.755348 139.414169,88.357506 138.912277,88.959671 
	C138.912277,88.959671 138.977936,88.980072 138.712158,89.034454 
	C138.232178,89.389763 138.018005,89.690697 137.803818,89.991631 
	C137.803818,89.991631 138.011353,89.961868 137.681000,89.924423 
	C136.831131,90.216202 136.311584,90.545433 135.792053,90.874657 
	C135.792053,90.874657 135.939255,90.906296 135.488678,90.882706 
	C129.701279,90.942780 124.364441,91.026436 119.027603,91.110092 
	C119.027603,91.110085 118.592239,90.980629 118.261154,90.732574 
	C117.632507,90.378632 117.334938,90.272743 117.037376,90.166847 
	C102.003990,87.744400 86.970612,85.321953 71.390137,82.636612 
	C69.228470,82.253334 67.613876,82.132935 65.999290,82.012543 
	C65.999290,82.012543 65.581680,81.940025 65.159897,81.613907 
	C60.169125,80.583839 55.600140,79.879898 51.031151,79.175964 
	C43.708038,79.713173 37.101894,81.426506 34.119141,90.117355 
	C33.557480,93.134140 32.845329,95.409828 32.842392,97.686440 
	C32.813873,119.790672 32.859077,141.895447 33.044674,163.998703 
	C33.059818,165.802216 34.264565,167.595764 34.916546,169.393936 
	C39.734035,174.714874 44.017872,174.431946 48.072475,168.983002 
	C52.146011,163.508652 57.784946,159.799408 64.304405,158.129227 
	C85.206375,152.774475 104.955132,165.007431 113.376724,183.835693 
	C114.323090,185.951492 115.095177,188.145233 115.988342,191.080505 
	C118.715271,200.623123 116.291222,208.829102 113.281960,216.971069 
	C108.865456,228.117508 101.007256,236.140030 90.000870,241.912216 
	C80.824310,243.740097 72.354446,244.034927 63.996830,241.056061 
	C60.611568,238.995377 56.822281,237.380157 53.939438,234.765533 
	C49.998959,231.191681 46.983597,226.604202 43.082684,222.977127 
	C41.575768,221.576004 38.449852,220.651917 36.555370,221.204285 
	C32.997475,222.241592 30.588533,225.037949 30.869738,230.042786 
	C29.902039,245.868195 29.033358,260.932709 28.098740,276.458344 
	C27.746063,284.269135 27.459322,291.618774 27.172581,298.968445 
	C25.927378,311.298340 31.669195,317.633240 46.044659,318.979431 
	C58.256611,317.590149 69.629349,316.213226 81.420547,314.908997 
	C90.676949,313.994263 99.494957,312.705414 108.359428,312.119781 
	C114.849770,311.690979 121.401146,312.186127 127.925323,312.269440 
z"/>
<path fill="#036F8C" opacity="1.000000" stroke="none" 
	d="
M326.626251,104.403008 
	C326.911072,121.878555 327.052429,139.706879 327.056274,157.535217 
	C327.066437,204.699310 327.016998,251.863403 326.903473,299.485229 
	C326.543793,298.162933 326.035461,296.383026 326.034210,294.602814 
	C325.990570,232.968689 325.991608,171.334549 326.010284,109.700401 
	C326.010803,108.052155 326.277527,106.403992 326.626251,104.403008 
z"/>
<path fill="#177994" opacity="1.000000" stroke="none" 
	d="
M282.750122,317.878265 
	C279.750153,318.088898 276.399078,318.361084 273.133636,317.951294 
	C254.861130,315.658234 236.609299,313.200409 218.145737,310.457428 
	C224.978104,310.728943 232.038849,311.146362 239.047256,311.995667 
	C253.525803,313.750244 267.976440,315.734924 282.750122,317.878265 
z"/>
<path fill="#06708E" opacity="1.000000" stroke="none" 
	d="
M34.923176,168.947906 
	C34.264565,167.595764 33.059818,165.802216 33.044674,163.998703 
	C32.859077,141.895447 32.813873,119.790672 32.842392,97.686440 
	C32.845329,95.409828 33.557480,93.134140 34.076958,90.460655 
	C34.138290,93.140381 34.000191,96.217445 33.998333,99.294586 
	C33.986008,119.734528 33.969975,140.174622 34.050785,160.614273 
	C34.061184,163.244598 34.623280,165.872742 34.923176,168.947906 
z"/>
<path fill="#167A94" opacity="1.000000" stroke="none" 
	d="
M127.767494,311.930725 
	C121.401146,312.186127 114.849770,311.690979 108.359428,312.119781 
	C99.494957,312.705414 90.676949,313.994263 81.420410,314.616516 
	C81.002541,313.862366 81.003296,313.473389 81.004051,313.084412 
	C93.461823,311.857117 105.905701,310.435760 118.387398,309.542999 
	C121.397232,309.327698 124.532227,310.862183 127.767494,311.930725 
z"/>
<path fill="#217E98" opacity="1.000000" stroke="none" 
	d="
M124.901062,374.777679 
	C117.366913,363.496918 115.838867,351.248596 121.614532,338.075989 
	C121.265175,341.707520 120.563026,345.575317 120.038643,349.467041 
	C118.846992,358.310913 121.948853,366.341400 124.901062,374.777679 
z"/>
<path fill="#097591" opacity="1.000000" stroke="none" 
	d="
M28.164677,275.997223 
	C29.033358,260.932709 29.902039,245.868195 30.984119,230.433990 
	C31.052408,239.613525 30.972132,249.164368 30.737106,258.711395 
	C30.602886,264.163544 30.216528,269.609436 29.633724,275.526917 
	C28.937393,275.996155 28.551037,275.996704 28.164677,275.997223 
z"/>
<path fill="#157893" opacity="1.000000" stroke="none" 
	d="
M219.349152,92.153496 
	C229.316574,90.740692 239.603149,89.542877 249.899704,88.438316 
	C252.670715,88.141060 255.472153,88.127243 258.613831,88.047226 
	C250.632996,89.414841 242.322922,90.924133 233.953079,91.942009 
	C229.243683,92.514717 224.435654,92.276428 219.349152,92.153496 
z"/>
<path fill="#28839C" opacity="1.000000" stroke="none" 
	d="
M64.126472,241.381943 
	C72.354446,244.034927 80.824310,243.740097 89.667206,242.012115 
	C86.227692,243.392487 82.409592,245.867599 78.721077,245.687592 
	C73.846291,245.449661 69.073013,243.131714 64.126472,241.381943 
z"/>
<path fill="#187A95" opacity="1.000000" stroke="none" 
	d="
M80.601440,313.145538 
	C81.003296,313.473389 81.002541,313.862366 81.001938,314.543823 
	C69.629349,316.213226 58.256611,317.590149 46.452278,318.902527 
	C50.039776,317.887329 54.017952,316.671143 58.086918,316.044037 
	C65.428917,314.912415 72.825218,314.133118 80.601440,313.145538 
z"/>
<path fill="#217E98" opacity="1.000000" stroke="none" 
	d="
M179.329010,395.977966 
	C174.537048,399.765839 168.532196,399.243530 162.719086,398.632202 
	C158.160477,398.152802 153.701385,396.727112 149.004211,395.389374 
	C154.059937,395.700317 159.296997,396.695099 164.562851,396.883179 
	C169.333008,397.053528 174.134598,396.344147 179.329010,395.977966 
z"/>
<path fill="#217E98" opacity="1.000000" stroke="none" 
	d="
M132.898895,63.767822 
	C128.410614,56.349064 127.316727,48.028503 129.612488,39.058647 
	C130.943222,47.017170 131.935196,55.184563 132.898895,63.767822 
z"/>
<path fill="#177D97" opacity="1.000000" stroke="none" 
	d="
M113.592163,216.841614 
	C116.291222,208.829102 118.715271,200.623123 116.093277,191.440689 
	C116.946465,192.709961 118.192627,194.331528 118.443779,196.094833 
	C119.496017,203.482605 118.149971,210.442398 113.592163,216.841614 
z"/>
<path fill="#177994" opacity="1.000000" stroke="none" 
	d="
M271.749573,86.729271 
	C273.732971,86.180801 275.884094,85.117088 278.139954,84.800911 
	C283.815338,84.005478 289.537964,83.547501 295.609070,83.187546 
	C295.983826,83.608261 295.991150,83.795670 295.998505,83.983093 
	C287.987335,84.840179 279.976166,85.697266 271.749573,86.729271 
z"/>
<path fill="#117691" opacity="1.000000" stroke="none" 
	d="
M222.085922,32.253387 
	C226.542084,41.325027 226.087387,50.914551 222.296417,60.781311 
	C222.656448,56.783398 223.867432,52.555023 223.829956,48.337746 
	C223.783569,43.116371 222.701691,37.904194 222.085922,32.253387 
z"/>
<path fill="#0B7792" opacity="1.000000" stroke="none" 
	d="
M28.098742,276.458344 
	C28.551037,275.996704 28.937393,275.996155 29.611988,275.993103 
	C29.213678,283.531433 28.527132,291.072235 27.506584,298.790771 
	C27.459322,291.618774 27.746063,284.269135 28.098742,276.458344 
z"/>
<path fill="#217E98" opacity="1.000000" stroke="none" 
	d="
M296.415344,83.957672 
	C295.991150,83.795670 295.983826,83.608261 295.964722,83.139801 
	C302.251282,81.022041 308.530884,79.963539 314.926056,83.607170 
	C309.042633,83.913116 302.937408,83.922691 296.415344,83.957672 
z"/>
<path fill="#217E98" opacity="1.000000" stroke="none" 
	d="
M119.341995,91.325752 
	C124.364441,91.026436 129.701279,90.942780 135.502121,90.808640 
	C130.731705,95.228569 125.147865,92.423355 119.341995,91.325752 
z"/>
<path fill="#177994" opacity="1.000000" stroke="none" 
	d="
M204.809143,317.201111 
	C203.942825,323.267792 207.122101,328.205017 210.041382,333.591980 
	C205.052689,330.431213 202.202240,322.034180 204.809143,317.201111 
z"/>
<path fill="#187A95" opacity="1.000000" stroke="none" 
	d="
M51.197094,79.500725 
	C55.600140,79.879898 60.169125,80.583839 64.948029,81.619156 
	C60.559647,81.242188 55.961342,80.533836 51.197094,79.500725 
z"/>
<path fill="#217E98" opacity="1.000000" stroke="none" 
	d="
M141.200562,86.843124 
	C141.267014,84.886230 141.673920,82.845894 142.134521,80.407333 
	C145.395935,82.587524 143.595840,84.685814 141.200562,86.843124 
z"/>
<path fill="#217E98" opacity="1.000000" stroke="none" 
	d="
M123.208885,335.867676 
	C124.352821,333.677887 125.835548,331.425201 127.610901,329.004761 
	C126.451576,331.159576 124.999634,333.482178 123.208885,335.867676 
z"/>
<path fill="#117691" opacity="1.000000" stroke="none" 
	d="
M219.197983,27.017551 
	C220.146011,28.282457 221.136322,29.777231 222.173584,31.612341 
	C221.227112,30.384258 220.233704,28.815838 219.197983,27.017551 
z"/>
<path fill="#187A95" opacity="1.000000" stroke="none" 
	d="
M66.296043,82.245758 
	C67.613876,82.132935 69.228470,82.253334 70.976273,82.671501 
	C69.603928,82.805847 68.098366,82.642410 66.296043,82.245758 
z"/>
<path fill="#177994" opacity="1.000000" stroke="none" 
	d="
M210.072235,334.232971 
	C210.912735,335.361053 211.758865,336.848175 212.665497,338.653046 
	C211.843277,337.511230 210.960571,336.051605 210.072235,334.232971 
z"/>
<path fill="#217E98" opacity="1.000000" stroke="none" 
	d="
M126.886993,377.824829 
	C126.248627,377.356842 125.619591,376.531555 124.913239,375.399109 
	C125.522720,375.883759 126.209518,376.675629 126.886993,377.824829 
z"/>
<path fill="#217E98" opacity="1.000000" stroke="none" 
	d="
M134.905945,386.483765 
	C134.038162,386.063934 133.087296,385.326508 131.996796,384.316254 
	C132.845718,384.751038 133.834305,385.458618 134.905945,386.483765 
z"/>
<path fill="#217E98" opacity="1.000000" stroke="none" 
	d="
M129.092300,327.781494 
	C129.297119,326.960968 129.849564,326.088104 130.655151,325.032043 
	C130.418823,325.808960 129.929382,326.769043 129.092300,327.781494 
z"/>
<path fill="#177994" opacity="1.000000" stroke="none" 
	d="
M209.175354,311.373474 
	C208.834717,312.075378 208.160721,312.841827 207.240387,313.788574 
	C207.610031,313.125244 208.226013,312.281616 209.175354,311.373474 
z"/>
<path fill="#217E98" opacity="1.000000" stroke="none" 
	d="
M128.573151,380.100525 
	C128.028778,379.850220 127.513168,379.260376 126.908089,378.388519 
	C127.413048,378.658020 128.007477,379.209534 128.573151,380.100525 
z"/>
<path fill="#217E98" opacity="1.000000" stroke="none" 
	d="
M131.058411,324.782318 
	C131.116791,324.253540 131.394653,323.521454 131.874420,322.572021 
	C131.810181,323.096100 131.544052,323.837585 131.058411,324.782318 
z"/>
<path fill="#177994" opacity="1.000000" stroke="none" 
	d="
M212.081818,310.105164 
	C211.588898,310.506134 210.713516,310.936920 209.448273,311.347565 
	C209.938721,310.929932 210.819031,310.532440 212.081818,310.105164 
z"/>
<path fill="#217E98" opacity="1.000000" stroke="none" 
	d="
M139.219574,88.874092 
	C139.414169,88.357506 139.916061,87.755348 140.671722,87.000305 
	C140.459290,87.494461 139.993073,88.141495 139.219574,88.874092 
z"/>
<path fill="#177994" opacity="1.000000" stroke="none" 
	d="
M205.911819,315.209351 
	C205.916779,315.564667 205.705536,316.137543 205.265549,316.919586 
	C205.256409,316.561493 205.476013,315.994171 205.911819,315.209351 
z"/>
<path fill="#217E98" opacity="1.000000" stroke="none" 
	d="
M129.894684,381.777466 
	C129.551758,381.658966 129.124664,381.240173 128.589508,380.529388 
	C128.924469,380.650665 129.367493,381.063934 129.894684,381.777466 
z"/>
<path fill="#217E98" opacity="1.000000" stroke="none" 
	d="
M133.902527,65.811752 
	C133.606598,65.630455 133.244461,65.147125 132.837555,64.346252 
	C133.140610,64.522377 133.488464,65.016045 133.902527,65.811752 
z"/>
<path fill="#217E98" opacity="1.000000" stroke="none" 
	d="
M136.108398,90.829849 
	C136.311584,90.545433 136.831131,90.216202 137.665817,89.820694 
	C137.462219,90.097961 136.943466,90.441498 136.108398,90.829849 
z"/>
<path fill="#217E98" opacity="1.000000" stroke="none" 
	d="
M122.046814,337.769714 
	C122.018684,337.394196 122.225189,336.815430 122.678543,336.045868 
	C122.710747,336.425507 122.496094,336.996002 122.046814,337.769714 
z"/>
<path fill="#217E98" opacity="1.000000" stroke="none" 
	d="
M315.195190,84.059525 
	C315.358795,84.028114 315.700500,84.210991 316.148041,84.674454 
	C315.960358,84.727974 315.666840,84.500893 315.195190,84.059525 
z"/>
<path fill="#167A94" opacity="1.000000" stroke="none" 
	d="
M130.840759,314.943359 
	C130.724152,314.931335 130.420990,314.735474 130.013336,314.281372 
	C130.157288,314.268555 130.405746,314.514069 130.840759,314.943359 
z"/>
<path fill="#217E98" opacity="1.000000" stroke="none" 
	d="
M316.198883,84.974533 
	C316.354767,84.963516 316.664337,85.180405 317.058167,85.677048 
	C316.879120,85.705345 316.615845,85.453888 316.198883,84.974533 
z"/>
<path fill="#217E98" opacity="1.000000" stroke="none" 
	d="
M138.014252,89.826180 
	C138.018005,89.690697 138.232178,89.389763 138.717896,89.000549 
	C138.734512,89.161766 138.479599,89.411247 138.014252,89.826180 
z"/>
<path fill="#217E98" opacity="1.000000" stroke="none" 
	d="
M117.204384,90.319862 
	C117.334938,90.272743 117.632507,90.378632 118.034424,90.719620 
	C117.876122,90.805031 117.620331,90.644417 117.204384,90.319862 
z"/>
<path fill="#217E98" opacity="1.000000" stroke="none" 
	d="
M128.040482,328.806335 
	C128.018555,328.649353 128.212036,328.308960 128.684021,327.854736 
	C128.726990,328.034912 128.491440,328.328918 128.040482,328.806335 
z"/>
<path fill="#177994" opacity="1.000000" stroke="none" 
	d="
M215.529007,309.999695 
	C215.661453,309.945312 215.511139,310.215759 215.511139,310.215759 
	C215.511139,310.215759 215.191330,310.193756 215.155975,310.085571 
	C215.120636,309.977417 215.396561,310.054108 215.529007,309.999695 
z"/>
<path fill="#167A94" opacity="1.000000" stroke="none" 
	d="
M131.768570,316.032349 
	C131.628540,316.021423 131.322083,315.785187 130.933167,315.261719 
	C131.101196,315.251984 131.351669,315.529510 131.768570,316.032349 
z"/>
<path fill="#177994" opacity="1.000000" stroke="none" 
	d="
M206.815063,314.187256 
	C206.799637,314.291046 206.626617,314.581024 206.213074,314.968964 
	C206.224701,314.859314 206.453018,314.628113 206.815063,314.187256 
z"/>
</svg>